<svg width="28" height="24" viewBox="0 0 28 24" fill="none" xmlns="http://www.w3.org/2000/svg">
<g clip-path="url(#clip0)">
<path d="M12.377 0.000671387H3.6274C3.14415 0.000671387 2.75244 0.336421 2.75244 0.750635V23.2495C2.75244 23.6637 3.14415 23.9995 3.6274 23.9995H12.377C12.8602 23.9995 13.2519 23.6637 13.2519 23.2495V0.750635C13.2519 0.336421 12.8602 0.000671387 12.377 0.000671387ZM11.502 22.4996H4.50236V20.2497H8.87714V18.7498H4.50236V16.4999H7.12723V14.9999H4.50236V12.75H8.87714V11.2501H4.50236V9.00023H7.12723V7.5003H4.50236V5.25041H8.87714V3.75049H4.50236V1.5006H11.502V22.4996Z" fill="white"/>
<path d="M24.0139 18.9747L21.1265 21.4421V2.55798L24.0051 5.02536L25.2388 3.96792L20.864 0.218099C20.5227 -0.0726996 19.9716 -0.0726996 19.6303 0.218099L15.2556 3.96792L16.4892 5.02536L19.3766 2.55798V21.4421L16.498 18.9747L15.2643 20.0321L19.6391 23.7819C19.9804 24.0727 20.5315 24.0727 20.8728 23.7819L25.2476 20.0321L24.0139 18.9747Z" fill="white"/>
</g>
<defs>
<clipPath id="clip0">
<rect width="28" height="24" fill="white"/>
</clipPath>
</defs>
</svg>
