<svg width="28" height="23" viewBox="0 0 28 23" fill="none" xmlns="http://www.w3.org/2000/svg">
<g clip-path="url(#clip0)">
<path d="M14 2.84363C13.9999 2.84363 13.9999 2.84363 14 2.84363C10.4718 2.84363 7.16166 4.13454 4.67917 6.47857C4.41016 6.73257 4.41016 7.11053 4.67917 7.36453L9.15625 11.5918C9.31231 11.7392 9.53843 11.8238 9.77616 11.8238H18.2239C18.4617 11.8238 18.6877 11.7392 18.8438 11.5918L23.3209 7.36453C23.5899 7.11053 23.5899 6.73252 23.3209 6.47852C20.8383 4.13454 17.5281 2.84367 14 2.84363V2.84363ZM13.5172 10.4739L13.9999 9.61496L14.4827 10.4739H13.5172ZM17.8496 10.4739H16.2927L14.746 7.72188C14.6116 7.48291 14.3204 7.32988 13.9999 7.32988C13.6795 7.32988 13.3883 7.48291 13.2539 7.72188L11.7072 10.4739H10.1503L6.40125 6.93401C6.86964 6.53895 7.36664 6.18412 7.88734 5.87077L8.59473 6.56779C8.75725 6.72793 8.99088 6.81054 9.22625 6.81054C9.41178 6.81054 9.59835 6.7592 9.75195 6.65401C10.1005 6.41531 10.1475 5.98974 9.85695 5.70344L9.29533 5.15004C10.5121 4.62841 11.8225 4.31232 13.1783 4.22129V5.05253C13.1783 5.42528 13.5462 5.72746 13.9999 5.72746C14.4537 5.72746 14.8216 5.42528 14.8216 5.05253V4.22129C16.1774 4.31232 17.4878 4.62841 18.7046 5.15004L18.1429 5.70344C17.8523 5.98974 17.8994 6.41535 18.2479 6.65401C18.4016 6.7592 18.5881 6.81054 18.7736 6.81054C19.009 6.81054 19.2426 6.72789 19.4052 6.56779L20.1125 5.87077C20.6332 6.18412 21.1302 6.53895 21.5986 6.93401L17.8496 10.4739Z" fill="white"/>
<path d="M25.5234 1.63081C24.386 0.594387 22.7594 0 21.0607 0H6.93922C5.24059 0 3.61405 0.594387 2.47666 1.63076C1.33927 2.66714 0.787672 4.05754 0.963177 5.44542L2.62412 18.5748C2.94325 21.0976 5.51239 23 8.60016 23H19.3999C22.4876 23 25.0567 21.0976 25.3759 18.5748L27.0368 5.44546C27.2123 4.05758 26.6607 2.66718 25.5234 1.63081V1.63081ZM25.4022 5.30589L23.7414 18.4353C23.5095 20.268 21.643 21.6501 19.3999 21.6501H14.8217V17.602C14.8217 17.2292 14.4538 16.927 14 16.927C13.5462 16.927 13.1784 17.2292 13.1784 17.602V21.6501H8.60016C6.35694 21.6501 4.49048 20.2681 4.25861 18.4353L2.59772 5.30589C2.47014 4.29759 2.87089 3.28753 3.6972 2.53458C4.52351 1.78168 5.70515 1.34986 6.93922 1.34986H21.0607C22.2948 1.34986 23.4765 1.78168 24.3028 2.53463C25.1291 3.28753 25.5298 4.29763 25.4022 5.30589V5.30589Z" fill="white"/>
</g>
<defs>
<clipPath id="clip0">
<rect width="28" height="23" fill="white"/>
</clipPath>
</defs>
</svg>
