<svg width="654" height="499" viewBox="0 0 654 499" fill="none" xmlns="http://www.w3.org/2000/svg">
<g clip-path="url(#clip0)">
<path opacity="0.1" d="M373.398 78.9138C332.198 77.4817 292.958 64.1851 255.482 49.6346C218.006 35.0841 180.899 18.9679 140.686 11.2534C114.822 6.29507 85.2456 5.59491 64.4036 19.458C44.3511 32.8245 37.8706 55.8342 34.3821 77.208C31.7657 93.2861 30.2252 110.211 37.4059 125.264C42.3904 135.715 51.2453 144.499 57.3693 154.505C78.6696 189.334 63.6143 232.311 40.5379 266.294C29.7159 282.251 17.1496 297.483 8.7912 314.452C0.432778 331.421 -3.43131 350.892 3.87673 368.218C11.1275 385.403 28.3982 398.286 47.1075 407.356C85.0992 425.815 129.864 431.053 173.541 434.038C270.188 440.652 367.356 437.787 464.258 434.923C500.124 433.86 536.142 432.784 571.428 427.241C591.016 424.166 611.247 419.278 625.468 407.509C643.522 392.532 647.997 367.174 635.902 348.39C615.607 316.89 559.511 309.067 545.309 275.263C537.498 256.651 545.519 235.927 556.863 218.665C581.206 181.646 622.005 149.165 624.157 106.85C625.634 77.7872 606.02 48.6799 575.693 34.925C543.902 20.5146 499.824 22.3286 476.385 46.1848C452.207 70.722 409.76 80.1868 373.398 78.9138Z" fill="#28A761"/>
<path opacity="0.1" d="M369.088 480.026C499.517 480.026 605.25 472.166 605.25 462.471C605.25 452.776 499.517 444.916 369.088 444.916C238.66 444.916 132.926 452.776 132.926 462.471C132.926 472.166 238.66 480.026 369.088 480.026Z" fill="#28A761"/>
<path d="M186.482 405.612C186.482 405.612 199.851 403.474 207.872 412.925C207.872 412.925 201.99 417.559 189.334 411.143L186.482 405.612Z" fill="#28A761"/>
<path d="M185.044 405.44C185.044 405.44 176.52 415.955 180.702 427.622C180.702 427.622 187.654 424.835 188.411 410.666L185.044 405.44Z" fill="#28A761"/>
<path d="M177.405 388.146C177.405 388.146 182.752 378.344 204.141 392.067C204.141 392.067 201.289 398.661 191.842 398.127C182.396 397.592 179.887 393.347 177.405 388.146Z" fill="#28A761"/>
<path d="M176.011 387.44C176.011 387.44 164.915 386.167 163.839 411.57C163.839 411.57 170.873 413.027 175.871 404.995C180.868 396.962 178.805 392.456 176.011 387.44Z" fill="#28A761"/>
<path d="M169.549 367.186C169.549 367.186 175.788 349.899 198.425 362.196C198.425 362.196 193.256 378.058 171.866 373.068L169.549 367.186Z" fill="#28A761"/>
<path d="M162.591 341.344C162.591 341.344 174.362 323.872 195.216 340.071C195.216 340.071 187.908 356.468 164.374 347.557L162.591 341.344Z" fill="#28A761"/>
<path d="M160.096 316.743C160.096 316.743 173.827 300.703 194.504 316.743C194.504 316.743 181.492 330.823 160.096 320.843V316.743Z" fill="#28A761"/>
<path d="M157.957 292.862C157.957 292.862 171.866 276.109 191.652 291.971C191.652 291.971 175.966 306.763 157.957 296.783V292.862Z" fill="#28A761"/>
<path d="M159.205 271.654C159.205 271.654 173.846 250.082 192.365 264.703C192.365 264.703 176.679 283.238 159.205 275.753V271.654Z" fill="#28A761"/>
<path d="M162.591 246.874C162.591 246.874 178.105 225.488 196.108 241.884C196.108 241.884 177.748 260.426 162.591 250.795V246.874Z" fill="#28A761"/>
<path d="M167.767 224.731C167.767 224.731 186.126 204.636 202.142 212.637C202.142 212.637 183.007 233.979 166.965 230.058L167.767 224.731Z" fill="#28A761"/>
<path d="M174.184 203.745C174.184 203.745 195.395 179.15 207.694 187.348C207.694 187.348 192.084 206.444 172.681 208.353L174.184 203.745Z" fill="#28A761"/>
<path d="M183.446 179.399C183.446 179.399 201.99 159.298 215.536 164.288C215.536 164.288 199.672 185.14 180.957 185.675L183.446 179.399Z" fill="#28A761"/>
<path d="M191.83 156.625C191.83 156.625 212.328 137.37 221.24 140.756C221.24 140.756 206.446 162.149 190.939 160.902L191.83 156.625Z" fill="#28A761"/>
<path d="M200.029 135.563C200.029 135.563 217.675 112.572 227.301 114.354C227.301 114.354 216.606 134.85 200.029 137.905V135.563Z" fill="#28A761"/>
<path d="M208.929 107.238C208.929 107.238 224.525 89.6069 232.947 89.6515C232.947 89.6515 220.635 113.202 208.286 112.986L208.929 107.238Z" fill="#28A761"/>
<path d="M214.2 88.3595L229.261 51.6396C229.261 51.6396 230.019 84.8333 212.283 95.1701L214.2 88.3595Z" fill="#28A761"/>
<path d="M220.317 47.8651C220.317 47.8651 222.813 17.211 221.208 14.7159C221.208 14.7159 231.98 40.1761 220.209 61.4099L220.317 47.8651Z" fill="#28A761"/>
<path d="M168.963 366.773C168.963 366.773 153.342 357.091 143.226 380.776C143.226 380.776 157.129 389.999 170.797 372.813L168.963 366.773Z" fill="#28A761"/>
<path d="M162.127 340.358C162.127 340.358 142.965 331.619 133.665 356.347C133.665 356.347 148.472 366.531 163.871 346.608L162.127 340.358Z" fill="#28A761"/>
<path d="M159.205 318.239C159.205 318.239 145.48 302.199 124.829 318.239C124.829 318.239 137.841 332.319 159.205 322.338V318.239Z" fill="#28A761"/>
<path d="M157.492 292.862C157.492 292.862 143.589 276.109 123.798 291.971C123.798 291.971 139.49 306.763 157.492 296.783V292.862Z" fill="#28A761"/>
<path d="M159.205 272.265C159.205 272.265 149.452 248.077 128.254 258.497C128.254 258.497 139.712 279.916 158.345 276.268L159.205 272.265Z" fill="#28A761"/>
<path d="M163.82 246.753C163.82 246.753 154.131 222.178 132.627 233.578C132.627 233.578 145.792 256.104 162.865 250.553L163.82 246.753Z" fill="#28A761"/>
<path d="M169.829 224.858C169.829 224.858 166.01 197.914 148.185 195.502C148.185 195.502 151.96 223.916 167.423 229.714L169.829 224.858Z" fill="#28A761"/>
<path d="M174.636 203.789C174.636 203.789 173.146 171.328 158.409 170.201C158.409 170.201 158.906 194.84 172.974 208.391L174.636 203.789Z" fill="#28A761"/>
<path d="M184.974 178.469C184.974 178.469 180.575 151.475 166.513 148.172C166.513 148.172 168.257 174.319 183.586 185.089L184.974 178.469Z" fill="#28A761"/>
<path d="M193.498 156.815C193.498 156.815 193.345 128.701 184.757 124.564C184.757 124.564 179.423 150.024 191.009 160.405L193.498 156.815Z" fill="#28A761"/>
<path d="M200.685 135.276C200.685 135.276 199.482 106.322 190.582 102.242C190.582 102.242 187.533 125.156 199.348 137.173L200.685 135.276Z" fill="#28A761"/>
<path d="M210.17 109.542C210.17 109.542 210.113 85.9918 203.766 80.4733C203.766 80.4733 197.445 106.271 206.853 114.284L210.17 109.542Z" fill="#28A761"/>
<path d="M213.448 87.1883L207.274 47.986C207.274 47.986 198.877 80.104 213.748 94.2535L213.448 87.1883Z" fill="#28A761"/>
<path d="M214.658 48.2407C214.658 48.2407 198.794 21.8894 199.119 18.9615C199.119 18.9615 200.806 46.5794 220.763 60.3342L214.658 48.2407Z" fill="#28A761"/>
<path d="M216.517 40.4562C216.517 40.4562 201.544 3.02973 194.771 -0.0127563C194.771 -0.0127563 216.16 10.8587 217.764 39.3741L216.517 40.4562Z" fill="#28A761"/>
<path d="M208.203 113.209L207.184 112.89C219.821 71.6958 222.972 45.4209 216.058 38.8395L216.797 38.0629C224.124 45.0136 221.151 70.9957 208.203 113.209Z" fill="#444053"/>
<path d="M173.413 209.645L171.898 209.111C173.235 205.336 174.686 201.504 176.201 197.73C189.392 164.842 200.615 134.289 207.815 110.809L209.132 110.172C201.92 133.653 190.894 165.415 177.691 198.328C176.182 202.084 174.744 205.89 173.413 209.645Z" fill="#444053"/>
<path d="M205.294 436.451C205.09 436.222 184.604 413.167 170.332 373.793C161.962 350.747 157.3 326.521 156.518 302.015C155.544 271.38 161.967 237.168 172.987 206.1L174.183 207.5C149.458 277.236 159.281 336.997 172.312 372.979C186.438 411.99 206.688 434.796 206.885 435.025L205.294 436.451Z" fill="#444053"/>
<path d="M116.038 431.422C116.038 431.422 91.8154 429.965 94.6736 446.934C94.6736 446.934 94.1071 449.932 96.8253 451.294C96.8253 451.294 96.8635 450.021 99.308 450.46C100.176 450.606 101.059 450.649 101.937 450.587C103.126 450.508 104.257 450.043 105.158 449.264V449.264C105.158 449.264 111.963 446.45 114.612 435.324C114.612 435.324 116.572 432.899 116.49 432.275L112.403 434.019C112.403 434.019 113.803 436.966 112.702 439.417C112.702 439.417 112.568 434.128 111.785 434.249C111.626 434.249 109.659 435.273 109.659 435.273C109.659 435.273 112.065 440.41 110.251 444.14C110.251 444.14 110.938 437.813 108.914 435.642L106.037 437.323C106.037 437.323 108.844 442.625 106.941 446.953C106.941 446.953 107.425 440.314 105.432 437.73L102.822 439.767C102.822 439.767 105.457 444.993 103.853 448.583C103.853 448.583 103.643 440.855 102.255 440.27C102.255 440.27 99.9764 442.281 99.6263 443.109C99.6263 443.109 101.434 446.928 100.314 448.907C100.314 448.907 99.6263 443.758 99.0406 443.732C99.0406 443.732 96.768 447.144 96.5325 449.461C96.6426 447.301 97.3163 445.207 98.4868 443.389C97.177 443.636 95.9686 444.263 95.011 445.19C95.011 445.19 95.3612 442.778 99.047 442.568C99.047 442.568 100.957 439.977 101.428 439.818C101.428 439.818 97.7611 439.512 95.5394 440.499C95.5394 440.499 97.4937 438.227 102.103 439.226L104.649 437.126C104.649 437.126 99.8237 436.489 97.7738 437.196C97.7738 437.196 100.129 435.184 105.343 436.648L108.144 434.974C108.144 434.974 104.032 434.089 101.574 434.408C101.574 434.408 104.165 433.014 108.965 434.522L110.97 433.625C110.97 433.625 107.953 433.033 107.074 432.937C106.196 432.842 106.139 432.6 106.139 432.6C108.05 432.282 110.011 432.502 111.804 433.236C111.804 433.236 116.108 431.69 116.038 431.422Z" fill="#28A761"/>
<path d="M45.6307 439.296C45.6307 439.296 21.4403 437.838 24.2731 454.807C24.2731 454.807 23.7002 457.805 26.4184 459.167C26.4184 459.167 26.463 457.894 28.9075 458.334C29.7754 458.483 30.6583 458.526 31.5366 458.461C32.724 458.382 33.8531 457.917 34.7514 457.137V457.137C34.7514 457.137 41.5629 454.324 44.2111 443.198C44.2111 443.198 46.1654 440.773 46.1209 440.149L42.034 441.893C42.034 441.893 43.4345 444.84 42.3332 447.29C42.3332 447.29 42.1995 442.001 41.4165 442.122C41.2573 442.122 39.2903 443.147 39.2903 443.147C39.2903 443.147 41.6966 448.283 39.8823 452.013C39.8823 452.013 40.5698 445.686 38.5391 443.516L35.6617 445.196C35.6617 445.196 38.4691 450.498 36.5657 454.827C36.5657 454.827 37.0558 448.188 35.0569 445.604L32.4533 447.64C32.4533 447.64 35.0888 452.866 33.4846 456.456C33.4846 456.456 33.2745 448.729 31.8867 448.143C31.8867 448.143 29.6077 450.155 29.2576 450.982C29.2576 450.982 31.0655 454.801 29.9451 456.781C29.9451 456.781 29.2576 451.631 28.672 451.606C28.672 451.606 26.4057 455.018 26.1638 457.334C26.2775 455.174 26.9534 453.081 28.1245 451.262C26.813 451.511 25.6027 452.137 24.6423 453.063C24.6423 453.063 24.9988 450.651 28.6847 450.441C28.6847 450.441 30.5945 447.851 31.0655 447.698C31.0655 447.698 27.3988 447.386 25.1771 448.372C25.1771 448.372 27.1314 446.1 31.7403 447.099L34.2867 444.999C34.2867 444.999 29.4613 444.362 27.4115 445.069C27.4115 445.069 29.7669 443.058 34.9806 444.522L37.7815 442.848C37.7815 442.848 33.6628 441.963 31.212 442.281C31.212 442.281 33.8029 440.887 38.6028 442.396L40.608 441.498C40.608 441.498 37.5906 440.906 36.7057 440.811C35.8209 440.715 35.7763 440.473 35.7763 440.473C37.6874 440.16 39.6481 440.38 41.4419 441.11C41.4419 441.11 45.6816 439.563 45.6307 439.296Z" fill="#28A761"/>
<path d="M84.8701 457.78C84.8701 457.78 60.6797 456.322 63.5061 473.292C63.5061 473.292 62.9396 476.29 65.6578 477.652C65.6578 477.652 65.7024 476.379 68.1405 476.818C69.0109 476.964 69.8955 477.007 70.776 476.945C71.9628 476.864 73.091 476.399 73.9908 475.621V475.621C73.9908 475.621 80.7959 472.808 83.4441 461.682C83.4441 461.682 85.4048 459.257 85.3539 458.633L81.267 460.377C81.267 460.377 82.6611 463.324 81.5662 465.775C81.5662 465.775 81.4325 460.485 80.6431 460.606C80.484 460.606 78.5233 461.631 78.5233 461.631C78.5233 461.631 80.9232 466.761 79.1089 470.497C79.1089 470.497 79.7965 464.171 77.7721 462L74.8947 463.68C74.8947 463.68 77.7021 468.983 75.7987 473.311C75.7987 473.311 76.2889 466.672 74.29 464.088L71.6799 466.125C71.6799 466.125 74.3218 471.35 72.7112 474.94C72.7112 474.94 72.5011 467.213 71.1197 466.627C71.1197 466.627 68.8344 468.639 68.4906 469.466C68.4906 469.466 70.2985 473.285 69.1718 475.265C69.1718 475.265 68.4843 470.116 67.8986 470.09C67.8986 470.09 65.626 473.502 65.3904 475.819C65.5005 473.659 66.1743 471.565 67.3448 469.746C66.035 469.994 64.8265 470.62 63.869 471.548C63.869 471.548 64.2191 469.135 67.9113 468.925C67.9113 468.925 69.7829 466.335 70.2858 466.176C70.2858 466.176 66.6191 465.87 64.3974 466.857C64.3974 466.857 66.3581 464.584 70.9606 465.615L73.507 463.515C73.507 463.515 68.6816 462.878 66.6318 463.585C66.6318 463.585 68.9935 461.574 74.2008 463.038L77.0082 461.364C77.0082 461.364 72.9149 460.498 70.4577 460.816C70.4577 460.816 73.0422 459.422 77.8485 460.931L79.8474 460.033C79.8474 460.033 76.8363 459.441 75.9515 459.346C75.0666 459.25 75.022 459.008 75.022 459.008C76.9331 458.691 78.8949 458.911 80.6877 459.645C80.6877 459.645 84.9401 458.047 84.8701 457.78Z" fill="#28A761"/>
<path opacity="0.1" d="M65.9889 482.33C75.4569 482.33 83.1322 481.033 83.1322 479.434C83.1322 477.834 75.4569 476.538 65.9889 476.538C56.5209 476.538 48.8455 477.834 48.8455 479.434C48.8455 481.033 56.5209 482.33 65.9889 482.33Z" fill="#28A761"/>
<path opacity="0.1" d="M609.751 482.33C619.219 482.33 626.894 481.033 626.894 479.434C626.894 477.834 619.219 476.538 609.751 476.538C600.283 476.538 592.607 477.834 592.607 479.434C592.607 481.033 600.283 482.33 609.751 482.33Z" fill="#28A761"/>
<path opacity="0.1" d="M445.581 499C455.049 499 462.724 497.703 462.724 496.104C462.724 494.504 455.049 493.208 445.581 493.208C436.113 493.208 428.437 494.504 428.437 496.104C428.437 497.703 436.113 499 445.581 499Z" fill="#28A761"/>
<path opacity="0.1" d="M636.863 457.226C646.331 457.226 654.006 455.93 654.006 454.33C654.006 452.731 646.331 451.434 636.863 451.434C627.395 451.434 619.72 452.731 619.72 454.33C619.72 455.93 627.395 457.226 636.863 457.226Z" fill="#28A761"/>
<path opacity="0.1" d="M99.3524 455.419C108.82 455.419 116.496 454.122 116.496 452.523C116.496 450.923 108.82 449.626 99.3524 449.626C89.8844 449.626 82.209 450.923 82.209 452.523C82.209 454.122 89.8844 455.419 99.3524 455.419Z" fill="#28A761"/>
<path opacity="0.1" d="M28.9266 463.547C38.3946 463.547 46.0699 462.25 46.0699 460.651C46.0699 459.051 38.3946 457.755 28.9266 457.755C19.4585 457.755 11.7832 459.051 11.7832 460.651C11.7832 462.25 19.4585 463.547 28.9266 463.547Z" fill="#28A761"/>
<path d="M461.075 50.7548H198.96C195.514 50.7548 192.721 53.5476 192.721 56.9926V452.758C192.721 456.203 195.514 458.996 198.96 458.996H461.075C464.521 458.996 467.314 456.203 467.314 452.758V56.9926C467.314 53.5476 464.521 50.7548 461.075 50.7548Z" fill="#3A3768"/>
<path opacity="0.1" d="M426.986 85.8452H236.448C226.179 85.8452 217.854 94.1692 217.854 104.437V147.51C217.854 157.778 226.179 166.102 236.448 166.102H426.986C437.256 166.102 445.581 157.778 445.581 147.51V104.437C445.581 94.1692 437.256 85.8452 426.986 85.8452Z" fill="black"/>
<path d="M437.101 87.411H225.811C222.225 87.411 219.318 90.3177 219.318 93.9033V158.54C219.318 162.126 222.225 165.033 225.811 165.033H437.101C440.687 165.033 443.595 162.126 443.595 158.54V93.9033C443.595 90.3177 440.687 87.411 437.101 87.411Z" fill="#E6E8EC"/>
<path opacity="0.1" d="M264.204 199.531H232.654C228.861 199.531 225.785 202.606 225.785 206.399V242.973C225.785 246.766 228.861 249.841 232.654 249.841H264.204C267.997 249.841 271.072 246.766 271.072 242.973V206.399C271.072 202.606 267.997 199.531 264.204 199.531Z" fill="black"/>
<path opacity="0.1" d="M319.555 199.531H288.006C284.212 199.531 281.137 202.606 281.137 206.399V242.973C281.137 246.766 284.212 249.841 288.006 249.841H319.555C323.349 249.841 326.424 246.766 326.424 242.973V206.399C326.424 202.606 323.349 199.531 319.555 199.531Z" fill="black"/>
<path opacity="0.1" d="M374.907 199.531H343.357C339.564 199.531 336.488 202.606 336.488 206.399V242.973C336.488 246.766 339.564 249.841 343.357 249.841H374.907C378.7 249.841 381.775 246.766 381.775 242.973V206.399C381.775 202.606 378.7 199.531 374.907 199.531Z" fill="black"/>
<path opacity="0.1" d="M418.768 200.601H410.199C400.06 200.601 391.84 208.819 391.84 218.957V232.553C391.84 242.691 400.06 250.91 410.199 250.91H418.768C428.907 250.91 437.127 242.691 437.127 232.553V218.957C437.127 208.819 428.907 200.601 418.768 200.601Z" fill="black"/>
<path d="M430.258 199.531H398.709C394.915 199.531 391.84 202.606 391.84 206.399V242.973C391.84 246.766 394.915 249.841 398.709 249.841H430.258C434.052 249.841 437.127 246.766 437.127 242.973V206.399C437.127 202.606 434.052 199.531 430.258 199.531Z" fill="#28A761"/>
<path opacity="0.1" d="M264.204 254.875H232.654C228.861 254.875 225.785 257.95 225.785 261.743V298.317C225.785 302.11 228.861 305.185 232.654 305.185H264.204C267.997 305.185 271.072 302.11 271.072 298.317V261.743C271.072 257.95 267.997 254.875 264.204 254.875Z" fill="black"/>
<path opacity="0.1" d="M319.555 254.875H288.006C284.212 254.875 281.137 257.95 281.137 261.743V298.317C281.137 302.11 284.212 305.185 288.006 305.185H319.555C323.349 305.185 326.424 302.11 326.424 298.317V261.743C326.424 257.95 323.349 254.875 319.555 254.875Z" fill="black"/>
<path opacity="0.1" d="M374.907 254.875H343.357C339.564 254.875 336.488 257.95 336.488 261.743V298.317C336.488 302.11 339.564 305.185 343.357 305.185H374.907C378.7 305.185 381.775 302.11 381.775 298.317V261.743C381.775 257.95 378.7 254.875 374.907 254.875Z" fill="black"/>
<path opacity="0.1" d="M264.204 315.967H232.654C228.861 315.967 225.785 319.042 225.785 322.835V359.408C225.785 363.201 228.861 366.276 232.654 366.276H264.204C267.997 366.276 271.072 363.201 271.072 359.408V322.835C271.072 319.042 267.997 315.967 264.204 315.967Z" fill="black"/>
<path opacity="0.1" d="M319.555 315.967H288.006C284.212 315.967 281.137 319.042 281.137 322.835V359.408C281.137 363.201 284.212 366.276 288.006 366.276H319.555C323.349 366.276 326.424 363.201 326.424 359.408V322.835C326.424 319.042 323.349 315.967 319.555 315.967Z" fill="black"/>
<path opacity="0.1" d="M374.907 315.967H343.357C339.564 315.967 336.488 319.042 336.488 322.835V359.408C336.488 363.201 339.564 366.276 343.357 366.276H374.907C378.7 366.276 381.775 363.201 381.775 359.408V322.835C381.775 319.042 378.7 315.967 374.907 315.967Z" fill="black"/>
<path opacity="0.1" d="M374.907 377.059H343.357C339.564 377.059 336.488 380.133 336.488 383.926V420.5C336.488 424.293 339.564 427.368 343.357 427.368H374.907C378.7 427.368 381.775 424.293 381.775 420.5V383.926C381.775 380.133 378.7 377.059 374.907 377.059Z" fill="black"/>
<path opacity="0.1" d="M418.768 255.945H410.199C400.06 255.945 391.84 264.163 391.84 274.301V287.897C391.84 298.035 400.06 306.254 410.199 306.254H418.768C428.907 306.254 437.127 298.035 437.127 287.897V274.301C437.127 264.163 428.907 255.945 418.768 255.945Z" fill="black"/>
<path d="M429.933 254.875H399.033C395.06 254.875 391.84 258.095 391.84 262.068V297.992C391.84 301.964 395.06 305.185 399.033 305.185H429.933C433.906 305.185 437.127 301.964 437.127 297.992V262.068C437.127 258.095 433.906 254.875 429.933 254.875Z" fill="#28A761"/>
<path opacity="0.2" d="M429.933 254.875H399.033C395.06 254.875 391.84 258.095 391.84 262.068V297.992C391.84 301.964 395.06 305.185 399.033 305.185H429.933C433.906 305.185 437.127 301.964 437.127 297.992V262.068C437.127 258.095 433.906 254.875 429.933 254.875Z" fill="black"/>
<path opacity="0.1" d="M320.032 377.059H232.177C228.647 377.059 225.785 379.92 225.785 383.449V420.977C225.785 424.507 228.647 427.368 232.177 427.368H320.032C323.562 427.368 326.424 424.507 326.424 420.977V383.449C326.424 379.92 323.562 377.059 320.032 377.059Z" fill="black"/>
<path opacity="0.1" d="M429.698 315.967H394.946C390.847 315.967 387.524 319.29 387.524 323.389V419.953C387.524 424.051 390.847 427.374 394.946 427.374H429.698C433.797 427.374 437.12 424.051 437.12 419.953V323.389C437.12 319.29 433.797 315.967 429.698 315.967Z" fill="black"/>
<path d="M433.524 151.475H413.7V153.62H433.524V151.475Z" fill="#28A761"/>
<path d="M404.502 151.475H384.678V153.62H404.502V151.475Z" fill="#28A761"/>
<path d="M375.473 151.475H355.65V153.62H375.473V151.475Z" fill="#28A761"/>
<path d="M346.451 151.475H326.628V153.62H346.451V151.475Z" fill="#28A761"/>
<path d="M560.116 302.047C562.159 295.172 560.116 288.298 560.116 288.298V281.812C560.116 281.812 562.452 269.133 552.025 260.999L545.111 254.901C545.111 254.901 541.235 251.572 540.108 251.362C539.898 251.317 539.685 251.285 539.471 251.266L539.267 251.145C538.673 250.129 538.166 249.065 537.752 247.963C538.2 248.021 538.655 247.975 539.082 247.83C539.509 247.684 539.897 247.442 540.216 247.123C540.466 246.835 540.662 246.506 540.795 246.149V246.149C541.196 245.251 541.266 244.163 541.604 243.208C541.9 242.434 542.331 241.719 542.877 241.095C542.807 241.21 542.731 241.318 542.667 241.439C543.647 240.217 544.927 239.173 545.85 237.887C546.033 237.632 546.201 237.366 546.353 237.091C546.315 237.149 546.264 237.2 546.219 237.257C547.492 235.214 547.881 232.738 548.25 230.351C548.428 229.539 548.441 228.699 548.288 227.881C548.109 227.339 547.879 226.814 547.6 226.315C546.098 223.216 546.124 219.314 543.724 216.838C541.916 214.986 539.178 214.419 536.6 214.101C534.022 213.783 531.31 213.598 529.095 212.249C528.476 211.78 527.792 211.405 527.064 211.135C526.698 211.007 526.299 211.011 525.935 211.146C525.571 211.28 525.266 211.538 525.072 211.873C525.026 212.072 524.934 212.257 524.804 212.414C524.689 212.48 524.56 212.518 524.427 212.525C524.295 212.533 524.163 212.51 524.04 212.459L520.609 211.542L520.647 211.714H520.558L520.685 212.255C520.753 212.243 520.822 212.255 520.881 212.289C520.94 212.323 520.986 212.376 521.01 212.44L520.456 213.293C519.395 213.273 518.346 213.057 517.362 212.656C517.356 212.711 517.356 212.767 517.362 212.822H517.312C517.248 213.789 518.349 214.419 518.687 215.329C518.822 215.728 518.822 216.16 518.687 216.558C518.549 216.927 518.331 217.262 518.05 217.538C516.834 218.741 515.274 218.506 513.874 219.263C513.753 219.315 513.645 219.392 513.557 219.49C513.469 219.588 513.403 219.704 513.365 219.829C513.309 219.923 513.293 220.036 513.32 220.141C513.375 220.287 513.476 220.412 513.607 220.498C514.014 220.827 514.461 221.105 514.937 221.325C514.797 221.453 514.663 221.58 514.536 221.714C512.759 223.52 511.456 225.738 510.745 228.17C510.035 230.602 509.938 233.173 510.463 235.652C510.988 238.13 512.119 240.441 513.755 242.376C515.391 244.311 517.482 245.811 519.839 246.741C519.89 247.008 519.928 247.282 519.966 247.568C519.966 247.6 519.966 247.619 519.966 247.651L520.004 248.02L515.383 249.987C514.686 249.982 514.004 249.778 513.418 249.401C512.832 249.023 512.365 248.487 512.072 247.855C510.997 245.633 507.196 247.855 507.196 247.855C507.196 247.855 495.604 246.989 491.281 249.128C491.281 249.128 484.362 246.225 483.388 246.028C482.414 245.831 480.956 245.06 480.275 245.258C479.594 245.455 478.715 243.985 478.225 244.093C477.735 244.201 477.544 243.126 475.984 242.737C474.424 242.349 473.839 242.839 472.088 241.095C470.338 239.351 456.103 232.477 456.103 232.477L449.712 227.219L442.894 221.796L442.773 222.019C442.729 221.86 442.684 221.694 442.64 221.516C441.961 218.815 441.111 216.159 440.093 213.566C439.654 212.516 439.457 211.192 438.865 211.892C438.502 212.312 437.884 211.389 436.955 210.766C436.758 210.63 436.533 210.539 436.296 210.501C436.06 210.463 435.818 210.478 435.588 210.545C435.358 210.612 435.146 210.729 434.968 210.889C434.789 211.048 434.648 211.245 434.555 211.466V211.466C429.246 219.791 427.342 220.377 430.417 223.438C433.161 226.156 434.981 228.53 437.216 229.282L437.483 229.364C437.435 229.377 437.385 229.377 437.337 229.364L450.298 244.857C450.298 244.857 459.649 252.991 466.085 255.601C472.521 258.211 472.025 258.994 472.025 258.994C472.025 258.994 491.517 268.866 494.534 268.675C497.552 268.484 496.972 288.909 495.706 292.225C494.439 295.542 492.395 319.334 492.395 319.334C492.395 319.334 490.441 324.369 492.491 327.851C492.491 327.851 492.943 334.521 492.535 336.125C490.759 338.862 488.226 343.509 487.812 348.289C487.812 348.543 487.761 348.779 487.736 349.027C487.606 349.178 487.451 349.305 487.277 349.403L487.71 349.275C487.526 351.268 487.098 353.23 486.437 355.118C485.406 357.77 484.861 360.586 484.826 363.431V378.809L483.553 388.357C483.553 388.357 481.994 395.581 483.553 397.268C484.211 398.109 484.516 399.172 484.406 400.234C484.341 401.467 484.691 402.686 485.399 403.696C485.67 403.992 485.869 404.347 485.979 404.732C486.089 405.118 486.109 405.524 486.036 405.918C485.52 407.592 486.8 425.408 486.8 425.408C486.8 425.408 486.424 430.315 485.909 430.576C485.393 430.837 486.8 436.254 486.8 436.254C486.8 436.254 481.535 440.645 482.878 442.969L484.222 445.031L483.865 445.381L483.649 445.604C483.243 445.37 482.769 445.28 482.305 445.349C480.651 447.042 478.881 448.618 477.009 450.066C474.635 451.778 468.173 454.26 468.173 454.26L463.08 454.674H462.985C462.985 454.674 460.547 454.445 461.915 458.219C463.284 461.994 475.519 460.835 475.519 460.835L482.662 459.709C482.662 459.709 495.394 459.772 499.041 458.964C500.563 458.627 500.951 457.812 500.824 456.991L500.786 456.953C500.611 456.17 500.253 455.439 499.742 454.82C499.715 454.78 499.686 454.741 499.653 454.706L499.882 452.096C505.286 448.984 498.354 442.86 498.354 442.86C498.354 442.86 500.728 437.698 501.944 436.024C503.16 434.35 503.16 409.686 503.16 409.686C503.16 409.686 503.797 400.775 502.123 398.713C502.094 398.041 502.248 397.374 502.568 396.783C502.889 396.193 503.364 395.7 503.943 395.358C505.146 394.537 508.781 383.226 511.633 373.838L513.428 384.9C513.428 384.9 513.04 390.196 514.205 391.743C514.424 392.034 514.58 392.368 514.663 392.723C514.747 393.078 514.755 393.447 514.689 393.805C514.412 395.289 514.502 396.819 514.95 398.261C515.087 398.879 515.419 399.437 515.898 399.852C516.936 400.367 517 402.207 517.388 402.595C517.776 402.984 520.183 402.048 520.31 403.467C520.383 404.714 520.383 405.963 520.31 407.21L521.093 430.188C521.093 430.188 519.82 432.097 519.533 437.189C519.425 439.36 519.018 440.595 518.597 441.301C518.364 441.68 518.257 442.123 518.292 442.567C518.326 443.011 518.5 443.432 518.788 443.771L519.011 444.032L518.05 444.77C517.664 445.07 517.393 445.494 517.284 445.971C517.175 446.448 517.234 446.948 517.452 447.386C517.142 447.656 516.919 448.012 516.814 448.409C516.708 448.806 516.724 449.226 516.86 449.614C516.899 449.741 516.955 449.863 517.025 449.977C516.295 450.091 515.617 450.426 515.083 450.938C514.123 452.257 512.966 453.42 511.652 454.388C509.746 455.848 507.92 457.412 506.184 459.072C505.365 460.186 504.268 461.064 503.001 461.618C502.69 461.744 502.369 461.84 502.04 461.905C499.493 462.427 500.289 465.087 502.364 465.526C504.44 465.966 511.328 468.072 516.688 466.844C516.688 466.844 518.279 467.48 520.615 466.297C522.952 465.113 528.165 463.661 528.165 463.661C528.165 463.661 531.087 463.661 531.482 462.503C531.585 462.134 531.64 461.753 531.647 461.37L531.73 461.287L531.654 461.217C531.661 460.35 531.595 459.483 531.457 458.627C531.38 458.181 531.297 457.786 531.221 457.468C530.973 456.501 530.508 455.247 530.311 454.719C530.344 454.677 530.374 454.632 530.4 454.585C531.514 452.675 529.661 448.143 529.661 448.143C530.27 447.178 531.009 446.302 531.858 445.54C532.895 444.764 535.626 424.625 535.626 424.625C535.626 424.625 535.492 419.463 536.899 417.139C538.306 414.816 534.951 400.749 534.951 400.749C534.951 400.749 533.519 397.522 534.041 396.357C534.563 395.193 533.519 390.934 533.519 390.934V385.842C533.516 385.236 533.415 384.634 533.22 384.06C532.819 382.864 532.227 380.566 532.87 378.917C533.78 376.594 535.855 362.266 535.855 362.266C535.855 362.266 534.232 355.946 536.613 350.911C536.799 350.509 537.011 350.12 537.25 349.746C539.013 346.977 538.484 342.057 537.612 338.092C537.485 337.455 537.339 336.883 537.192 336.329C537.135 336.087 537.071 335.858 537.008 335.629L537.288 335.514C537.288 335.514 537.288 335.139 537.377 334.496C538.338 334.305 539.25 333.919 540.056 333.362C540.862 332.805 541.545 332.088 542.062 331.256C542.062 331.256 548.008 324.573 553.266 321.766C558.524 318.959 558.919 314.891 558.919 314.891C558.142 313.536 560.313 308.017 560.313 308.017L560.116 302.047ZM542.966 310.958L537.339 317.482V317.444C535.874 315.407 538.701 310.856 538.701 310.856L543.38 300.417C543.342 301.754 543.176 302.963 542.743 303.492C541.47 305.236 545.086 308.144 545.086 308.144C543.157 308.151 542.966 310.958 542.966 310.958V310.958Z" fill="url(#paint0_linear)"/>
<path d="M443.887 225.418L440.813 231.382C439.839 231.299 438.879 231.098 437.954 230.784C436.488 230.346 435.131 229.602 433.974 228.601C432.816 227.601 431.884 226.366 431.238 224.979C428.495 218.919 433.033 215.005 435.147 213.846C437.26 212.688 439.227 211.37 440.813 215.17C441.808 217.748 442.639 220.386 443.302 223.069C443.671 224.463 443.887 225.418 443.887 225.418Z" fill="#CC818C"/>
<path d="M541.534 256.441L536.626 263.748C536.626 263.748 513.435 274.811 517.865 261.839C519.813 256.11 520.042 251.928 519.692 249.032C519.692 249 519.692 248.981 519.692 248.949C519.234 245.328 517.872 243.756 517.872 243.756C517.872 243.756 540.477 232.184 537.109 240.096C536.422 241.74 536.149 243.528 536.314 245.302C536.591 247.858 537.421 250.323 538.745 252.527C539.542 253.921 540.476 255.233 541.534 256.441V256.441Z" fill="#CC818C"/>
<path d="M534.474 401.188C534.474 401.188 537.81 415.191 536.384 417.476C534.958 419.762 535.111 424.917 535.111 424.917C535.111 424.917 532.418 444.929 531.393 445.693C530.552 446.437 529.817 447.294 529.209 448.239C529.209 448.239 531.043 452.771 529.942 454.642C529.772 454.927 529.515 455.15 529.209 455.278C527.491 456.004 521.138 452.783 517.522 450.823C517.23 450.664 516.982 450.437 516.797 450.161C516.613 449.885 516.497 449.569 516.461 449.239C516.425 448.909 516.469 448.575 516.589 448.266C516.71 447.957 516.903 447.681 517.152 447.462C516.935 447.028 516.875 446.533 516.981 446.059C517.088 445.586 517.355 445.164 517.738 444.865L518.693 444.127L518.47 443.866C518.184 443.528 518.012 443.109 517.978 442.668C517.944 442.227 518.049 441.787 518.279 441.409C518.693 440.715 519.094 439.5 519.202 437.329C519.463 432.326 520.743 430.404 520.743 430.404L519.973 407.566C520.045 406.328 520.045 405.087 519.973 403.849C519.845 402.442 517.471 403.372 517.089 402.983C516.707 402.595 516.637 400.775 515.612 400.259C515.14 399.844 514.814 399.289 514.682 398.674C514.229 397.233 514.14 395.703 514.421 394.219C514.487 393.863 514.479 393.497 514.397 393.144C514.315 392.791 514.161 392.459 513.944 392.169C512.792 390.629 513.174 385.378 513.174 385.378L511.404 374.379C508.584 383.71 505 394.951 503.81 395.765C503.238 396.107 502.77 396.597 502.454 397.183C502.138 397.769 501.986 398.429 502.014 399.094C503.682 401.15 503.039 410.004 503.039 410.004C503.039 410.004 503.039 434.497 501.836 436.171C500.633 437.845 498.303 442.994 498.303 442.994C498.303 442.994 505.178 449.111 499.767 452.198H499.71C494.191 455.278 482.777 446.686 482.777 446.686L483.967 445.495L484.317 445.145L482.968 443.134C481.644 440.823 486.838 436.463 486.838 436.463C486.838 436.463 485.45 431.072 485.96 430.818C486.469 430.563 486.838 425.687 486.838 425.687C486.838 425.687 485.565 407.986 486.087 406.319C486.157 405.926 486.135 405.523 486.025 405.14C485.915 404.758 485.718 404.405 485.45 404.11C484.75 403.106 484.404 401.896 484.47 400.673C484.581 399.618 484.277 398.561 483.623 397.726C482.083 396.058 483.623 388.878 483.623 388.878L484.897 379.382V364.303C484.914 361.392 485.459 358.509 486.507 355.793C487.285 353.591 487.756 351.293 487.908 348.963C488.328 344.1 490.944 339.377 492.701 336.685C493.63 335.259 494.324 334.406 494.324 334.406L535.372 332.802C535.372 332.802 536.008 334.629 536.696 337.169C536.836 337.723 536.976 338.308 537.11 338.919C537.969 342.866 538.485 347.754 536.747 350.504C536.511 350.876 536.298 351.263 536.11 351.662C533.761 356.665 535.365 362.947 535.365 362.947C535.365 362.947 533.315 377.179 532.418 379.496C531.781 381.132 532.367 383.417 532.768 384.588C532.955 385.162 533.052 385.761 533.054 386.364V391.437C533.054 391.437 534.086 395.67 533.57 396.828C533.054 397.987 534.474 401.188 534.474 401.188Z" fill="#444053"/>
<path opacity="0.1" d="M536.365 350.911C536.127 351.28 535.914 351.665 535.728 352.063L533.417 351.936C533.64 350.745 532.068 339.588 532.068 339.588L536.721 339.327C537.581 343.267 538.103 348.155 536.365 350.911Z" fill="black"/>
<path d="M536.746 350.523C536.511 350.896 536.298 351.282 536.11 351.681L533.799 351.548C534.022 350.364 532.45 339.199 532.45 339.199L537.103 338.938C537.969 342.885 538.484 347.773 536.746 350.523Z" fill="#444053"/>
<path opacity="0.05" d="M536.746 350.523C536.511 350.896 536.298 351.282 536.11 351.681L533.799 351.548C534.022 350.364 532.45 339.199 532.45 339.199L537.103 338.938C537.969 342.885 538.484 347.773 536.746 350.523Z" fill="black"/>
<path opacity="0.1" d="M529.948 454.667C529.778 454.952 529.521 455.175 529.216 455.304C527.497 456.03 521.144 452.809 517.528 450.848C517.077 450.599 516.734 450.19 516.567 449.703C518.629 449.327 519.979 451.612 519.979 451.612C520.323 451.397 520.706 451.252 521.107 451.187C521.507 451.122 521.917 451.137 522.311 451.233C522.706 451.328 523.077 451.502 523.404 451.743C523.73 451.984 524.005 452.288 524.212 452.637C525.975 455.234 529.757 454.139 529.757 454.139L529.948 454.667Z" fill="black"/>
<path d="M531.011 462.528C530.629 463.687 527.739 463.687 527.739 463.687C527.739 463.687 522.576 465.163 520.265 466.315C517.954 467.468 516.388 466.863 516.388 466.863C511.098 468.079 504.293 465.965 502.243 465.545C500.194 465.125 499.392 462.471 501.925 461.955C502.25 461.889 502.568 461.791 502.874 461.663C504.143 461.114 505.242 460.234 506.057 459.117C507.772 457.468 509.576 455.915 511.461 454.464C512.759 453.5 513.901 452.343 514.848 451.033C517.865 448.372 520.011 452.026 520.011 452.026C520.355 451.811 520.739 451.666 521.14 451.602C521.54 451.537 521.95 451.553 522.345 451.649C522.739 451.745 523.11 451.919 523.437 452.161C523.763 452.403 524.037 452.708 524.244 453.057C526.007 455.654 529.789 454.553 529.789 454.553C529.789 454.553 530.47 456.291 530.788 457.538C530.864 457.856 530.947 458.251 531.024 458.697C531.195 459.989 531.304 461.663 531.011 462.528Z" fill="#FF748F"/>
<path d="M522.188 454.419C522.381 454.419 522.538 454.263 522.538 454.069C522.538 453.876 522.381 453.719 522.188 453.719C521.994 453.719 521.838 453.876 521.838 454.069C521.838 454.263 521.994 454.419 522.188 454.419Z" fill="#575988"/>
<path d="M519.177 457.239C519.37 457.239 519.527 457.082 519.527 456.889C519.527 456.696 519.37 456.539 519.177 456.539C518.983 456.539 518.827 456.696 518.827 456.889C518.827 457.082 518.983 457.239 519.177 457.239Z" fill="#575988"/>
<path d="M516.115 459.772C516.308 459.772 516.465 459.616 516.465 459.422C516.465 459.229 516.308 459.072 516.115 459.072C515.921 459.072 515.765 459.229 515.765 459.422C515.765 459.616 515.921 459.772 516.115 459.772Z" fill="#575988"/>
<path d="M517.7 458.639C517.893 458.639 518.05 458.483 518.05 458.289C518.05 458.096 517.893 457.939 517.7 457.939C517.506 457.939 517.35 458.096 517.35 458.289C517.35 458.483 517.506 458.639 517.7 458.639Z" fill="#575988"/>
<path d="M520.749 455.743C520.943 455.743 521.099 455.586 521.099 455.393C521.099 455.2 520.943 455.043 520.749 455.043C520.556 455.043 520.399 455.2 520.399 455.393C520.399 455.586 520.556 455.743 520.749 455.743Z" fill="#575988"/>
<path d="M531.011 462.528C530.629 463.687 527.739 463.687 527.739 463.687C527.739 463.687 522.576 465.163 520.265 466.315C517.955 467.467 516.389 466.863 516.389 466.863C511.098 468.078 504.293 465.965 502.243 465.545C500.194 465.125 499.392 462.471 501.925 461.955C502.25 461.889 502.568 461.791 502.874 461.663C505.111 462.433 507.448 462.877 509.813 462.98C515.039 463.203 519.177 462.98 519.177 462.98L524.467 461.281C525.468 460.673 526.581 460.271 527.739 460.097C528.91 459.858 530.018 459.377 530.992 458.684C531.196 459.989 531.304 461.663 531.011 462.528Z" fill="#DCE6F2"/>
<path opacity="0.5" d="M517.846 465.844C517.551 465.846 517.257 465.819 516.968 465.762L517.044 465.386C518.126 465.552 519.232 465.397 520.227 464.941C520.698 464.756 521.169 464.533 521.628 464.304C522.086 464.075 522.729 463.789 523.302 463.578L523.824 463.4C524.11 463.298 524.403 463.203 524.683 463.082C524.842 463.018 525.002 462.942 525.154 462.866C525.53 462.669 525.927 462.517 526.338 462.414C526.549 462.374 526.761 462.347 526.975 462.331C527.171 462.318 527.367 462.294 527.561 462.261C527.946 462.164 528.319 462.025 528.675 461.847C529.054 461.652 529.456 461.502 529.871 461.402L530.152 461.357C530.454 461.349 530.745 461.242 530.979 461.052L531.266 461.313C530.973 461.569 530.603 461.719 530.215 461.739L529.948 461.784C529.562 461.878 529.188 462.017 528.834 462.197C528.452 462.387 528.051 462.534 527.637 462.636C527.427 462.678 527.214 462.703 527 462.713C526.8 462.728 526.6 462.753 526.402 462.789C526.02 462.888 525.65 463.031 525.301 463.216L524.817 463.438C524.524 463.559 524.219 463.661 523.926 463.763L523.416 463.941C522.856 464.145 522.309 464.406 521.774 464.654C521.239 464.902 520.832 465.1 520.348 465.291C519.556 465.629 518.707 465.817 517.846 465.844V465.844Z" fill="#575988"/>
<path opacity="0.1" d="M519.081 402.118C519.081 402.118 521.742 398.299 526.3 398.299C530.858 398.299 532.806 397.783 532.806 397.783C532.806 397.783 529.891 399.514 527.873 399.737C525.855 399.96 519.081 402.118 519.081 402.118Z" fill="black"/>
<path opacity="0.1" d="M520.622 403.015C520.622 403.015 523.028 401.347 524.403 401.284C525.778 401.22 526.95 401.093 526.95 401.093C526.305 401.545 525.591 401.891 524.836 402.118C523.709 402.436 520.622 403.015 520.622 403.015Z" fill="black"/>
<path opacity="0.1" d="M521.163 404.167C521.163 404.167 524.785 404.454 524.817 405.44Z" fill="black"/>
<path opacity="0.1" d="M487.379 350.064C487.57 350.096 490.81 346.697 491.033 345.354C491.21 344.504 491.716 343.758 492.44 343.279C492.44 343.279 494.528 344.113 492.669 346.672C490.81 349.231 487.379 350.064 487.379 350.064Z" fill="black"/>
<path opacity="0.1" d="M537.078 240.083C536.339 241.827 535.69 241.992 535.804 243.654C534.945 244.564 533.956 245.343 532.87 245.964C530.578 247.326 528.083 249.993 525.231 249.993C523.32 249.995 521.426 249.636 519.648 248.937C519.189 245.315 517.827 243.743 517.827 243.743C517.827 243.743 540.439 232.171 537.078 240.083Z" fill="black"/>
<path d="M540.541 233.928C540.541 236.949 539.645 239.903 537.966 242.415C536.287 244.927 533.901 246.885 531.109 248.041C528.317 249.197 525.246 249.5 522.282 248.911C519.318 248.321 516.596 246.866 514.459 244.73C512.322 242.593 510.867 239.872 510.278 236.908C509.688 233.945 509.991 230.873 511.147 228.082C512.304 225.291 514.262 222.905 516.774 221.226C519.287 219.548 522.241 218.652 525.262 218.652C529.315 218.652 533.201 220.261 536.066 223.126C538.931 225.991 540.541 229.877 540.541 233.928V233.928Z" fill="#CC818C"/>
<path opacity="0.1" d="M541.534 256.441L536.626 263.748C536.626 263.748 513.435 274.811 517.865 261.839C519.813 256.11 520.042 251.928 519.692 249.032H519.731C520.005 249.992 520.161 250.982 520.195 251.979C520.265 253.978 520.316 256.505 525.288 257.338C533.564 258.726 537.982 253.558 538.758 252.546C539.551 253.933 540.481 255.238 541.534 256.441V256.441Z" fill="black"/>
<path opacity="0.1" d="M443.887 225.418L440.813 231.382C439.839 231.299 438.879 231.098 437.954 230.784L437.687 230.465C438.96 230.949 443.168 222.961 443.168 222.961L443.302 223.069C443.671 224.463 443.887 225.418 443.887 225.418Z" fill="black"/>
<path opacity="0.1" d="M536.696 337.188C526.79 341.491 492.529 337.824 492.529 337.824C492.631 337.459 492.689 337.083 492.701 336.704C493.63 335.278 494.324 334.426 494.324 334.426L535.372 332.822C535.372 332.822 536.04 334.648 536.696 337.188Z" fill="black"/>
<path d="M519.705 249.389L515.134 251.343C514.445 251.337 513.771 251.134 513.193 250.759C512.614 250.383 512.155 249.851 511.869 249.223C510.806 247.015 507.056 249.223 507.056 249.223C507.056 249.223 495.597 248.358 491.371 250.496C491.371 250.496 484.54 247.606 483.579 247.416C482.617 247.225 481.172 246.454 480.498 246.645C479.823 246.836 478.963 245.372 478.48 245.493C477.996 245.614 477.805 244.532 476.264 244.144C474.724 243.756 474.151 244.239 472.445 242.508C470.739 240.777 456.664 233.947 456.664 233.947L450.298 228.753L443.563 223.368C443.563 223.368 439.329 231.35 438.075 230.866L450.871 246.263C450.871 246.263 460.108 254.341 466.461 256.938C472.814 259.535 472.33 260.305 472.33 260.305C472.33 260.305 491.574 270.12 494.553 269.929C497.533 269.738 496.972 290.01 495.699 293.282C494.426 296.554 492.434 320.219 492.434 320.219C492.434 320.219 490.524 325.222 492.529 328.684C492.529 328.684 493.007 335.807 492.529 337.054C492.529 337.054 527 340.74 536.785 336.38C536.785 336.38 538.23 320.41 536.785 318.392C535.34 316.374 538.134 311.874 538.134 311.874L544.29 298.119L559.301 283.015C559.301 283.015 561.605 270.412 551.312 262.335L544.481 256.269C544.481 256.269 540.662 252.966 539.541 252.756C538.421 252.546 538.835 252.756 538.835 252.756C538.835 252.756 534.378 259.254 525.237 257.714C520.284 256.88 520.233 254.353 520.144 252.361C520.118 251.356 519.971 250.358 519.705 249.389V249.389Z" fill="#67647E"/>
<path opacity="0.1" d="M538.516 301.175C538.516 301.175 517.343 302.04 513.116 308.692C513.116 308.692 518.604 306.088 523.506 306.859C528.407 307.629 538.516 301.175 538.516 301.175Z" fill="black"/>
<path opacity="0.1" d="M515.134 324.356C515.134 324.356 525.142 325.031 527.261 322.911C529.381 320.792 529.388 319.544 529.388 319.544L515.134 324.356Z" fill="black"/>
<path opacity="0.1" d="M540.541 280.775C540.541 280.775 532.068 290.78 542.368 295.109L540.541 280.775Z" fill="black"/>
<path opacity="0.1" d="M490.409 261.444C490.409 261.444 493.49 267.726 495.031 268.14L490.409 261.444Z" fill="black"/>
<path opacity="0.1" d="M480.02 258.745C480.02 258.745 487.717 265.677 489.162 266.345C489.162 266.345 481.172 258.745 480.02 258.745Z" fill="black"/>
<path opacity="0.1" d="M510.71 252.113C510.71 252.113 503.3 263.175 508.113 269.935C508.113 269.91 505.42 261.921 510.71 252.113Z" fill="black"/>
<path d="M529.388 335.902L527.121 338.035L526.803 338.327L524.18 340.81C523.996 340.95 523.811 341.09 523.62 341.217C512.944 348.855 510.806 337.245 510.806 337.245C510.806 337.245 506.095 340.326 505.42 337.825C504.745 335.323 516.388 331.765 518.152 331.956C518.306 331.972 518.462 331.972 518.617 331.956C519.458 331.816 520.268 331.53 521.01 331.109L521.526 330.836C522.119 330.502 522.694 330.139 523.251 329.747L529.388 335.902Z" fill="#CC818C"/>
<path opacity="0.1" d="M540.897 233.928C540.903 236.578 540.219 239.183 538.913 241.488C537.608 243.794 535.725 245.72 533.449 247.078C533.236 246.721 533.049 246.349 532.889 245.964C532.341 244.691 532.004 243.316 531.45 242.037C530.845 240.64 529.981 239.371 528.904 238.294C528.721 238.081 528.487 237.919 528.223 237.823C527.975 237.789 527.723 237.806 527.482 237.873C527.242 237.94 527.017 238.055 526.822 238.212C526.174 238.651 525.452 238.968 524.69 239.147C524.309 239.235 523.911 239.222 523.536 239.111C523.162 238.999 522.822 238.792 522.551 238.511C521.952 237.798 522.035 236.754 522.207 235.844C522.583 233.852 523.206 231.891 523.213 229.867C523.219 227.843 522.442 225.666 520.666 224.661C519.113 223.776 517.184 224.024 515.459 223.528C515.192 223.458 514.93 223.368 514.676 223.26C516.797 221.084 519.519 219.589 522.494 218.967C525.469 218.346 528.562 218.626 531.377 219.771C534.192 220.916 536.602 222.875 538.298 225.397C539.994 227.919 540.899 230.889 540.897 233.928Z" fill="black"/>
<path d="M513.632 220.816C513.358 220.962 513.053 221.23 513.136 221.535C513.188 221.681 513.287 221.806 513.416 221.892C514.128 222.467 514.952 222.889 515.835 223.133C517.56 223.604 519.495 223.381 521.048 224.266C522.805 225.265 523.595 227.448 523.595 229.472C523.595 231.496 522.958 233.457 522.595 235.443C522.423 236.359 522.334 237.403 522.933 238.116C523.205 238.396 523.545 238.602 523.919 238.713C524.294 238.825 524.69 238.838 525.072 238.753C525.834 238.576 526.556 238.261 527.204 237.823C527.4 237.666 527.625 237.549 527.867 237.481C528.109 237.414 528.362 237.396 528.611 237.429C528.873 237.528 529.107 237.69 529.292 237.9C530.37 238.978 531.234 240.25 531.839 241.649C532.399 242.922 532.73 244.29 533.277 245.576C533.754 246.887 534.649 248.005 535.824 248.758C537.046 249.433 538.739 249.395 539.681 248.351C540.624 247.307 540.547 245.875 540.993 244.621C541.757 242.438 543.889 241.069 545.226 239.185C546.722 237.066 547.136 234.405 547.543 231.84C547.724 231.032 547.737 230.196 547.581 229.383C547.407 228.845 547.181 228.325 546.907 227.83C545.417 224.749 545.449 220.873 543.087 218.416C541.305 216.57 538.599 216.01 536.053 215.692C533.506 215.374 530.833 215.196 528.649 213.853C528.037 213.39 527.362 213.017 526.644 212.745C526.281 212.617 525.884 212.621 525.523 212.756C525.163 212.891 524.861 213.148 524.671 213.483C524.626 213.679 524.536 213.862 524.41 214.018C524.295 214.084 524.168 214.122 524.036 214.13C523.905 214.138 523.773 214.115 523.652 214.063L520.265 213.152L520.654 214.858C519.423 214.91 518.195 214.693 517.057 214.222C516.993 215.189 518.082 215.813 518.419 216.717C518.541 217.128 518.546 217.565 518.433 217.978C518.321 218.392 518.096 218.766 517.783 219.059C516.554 220.294 515.02 220.058 513.632 220.816Z" fill="#585268"/>
<path opacity="0.1" d="M499.907 450.67L499.767 452.204H499.71C494.191 455.285 482.777 446.692 482.777 446.692L483.967 445.502C484.162 445.719 484.31 445.974 484.4 446.251C484.49 446.529 484.52 446.822 484.489 447.112L486.819 447.24L489.607 450.25C489.607 450.25 497.151 451.122 499.194 450.639L499.907 450.67Z" fill="black"/>
<path d="M498.94 459.034C495.349 459.836 482.777 459.779 482.777 459.779L475.723 460.892C475.723 460.892 463.628 462.051 462.285 458.295C460.942 454.54 463.341 454.776 463.341 454.776H463.437L468.472 454.368C468.472 454.368 474.838 451.899 477.2 450.199C479.048 448.76 480.795 447.195 482.426 445.515C482.426 445.515 484.527 445.107 484.489 447.539L486.819 447.666L489.607 450.683C489.607 450.683 497.151 451.555 499.194 451.065H499.907L499.582 454.788L499.672 454.897C500.155 455.482 502.148 458.321 498.94 459.034Z" fill="#FF748F"/>
<path d="M485.921 450.053C486.115 450.053 486.271 449.896 486.271 449.703C486.271 449.509 486.115 449.353 485.921 449.353C485.728 449.353 485.571 449.509 485.571 449.703C485.571 449.896 485.728 450.053 485.921 450.053Z" fill="#575988"/>
<path d="M476.875 453.974C477.069 453.974 477.226 453.817 477.226 453.624C477.226 453.43 477.069 453.274 476.875 453.274C476.682 453.274 476.525 453.43 476.525 453.624C476.525 453.817 476.682 453.974 476.875 453.974Z" fill="#575988"/>
<path d="M472.216 455.387C472.409 455.387 472.566 455.23 472.566 455.037C472.566 454.843 472.409 454.687 472.216 454.687C472.022 454.687 471.865 454.843 471.865 455.037C471.865 455.23 472.022 455.387 472.216 455.387Z" fill="#575988"/>
<path d="M479.25 453.223C479.443 453.223 479.6 453.066 479.6 452.872C479.6 452.679 479.443 452.522 479.25 452.522C479.056 452.522 478.9 452.679 478.9 452.872C478.9 453.066 479.056 453.223 479.25 453.223Z" fill="#575988"/>
<path d="M474.539 454.68C474.733 454.68 474.889 454.523 474.889 454.33C474.889 454.137 474.733 453.98 474.539 453.98C474.346 453.98 474.189 454.137 474.189 454.33C474.189 454.523 474.346 454.68 474.539 454.68Z" fill="#575988"/>
<path d="M481.65 452.109C481.843 452.109 482 451.952 482 451.759C482 451.565 481.843 451.409 481.65 451.409C481.456 451.409 481.3 451.565 481.3 451.759C481.3 451.952 481.456 452.109 481.65 452.109Z" fill="#575988"/>
<path d="M484.024 451.078C484.218 451.078 484.374 450.921 484.374 450.728C484.374 450.534 484.218 450.378 484.024 450.378C483.831 450.378 483.674 450.534 483.674 450.728C483.674 450.921 483.831 451.078 484.024 451.078Z" fill="#575988"/>
<path d="M498.94 459.034C495.349 459.836 482.777 459.779 482.777 459.779L475.723 460.893C475.723 460.893 463.628 462.051 462.285 458.296C460.942 454.54 463.341 454.776 463.341 454.776H463.437C464.207 455.775 465.754 456.908 468.791 456.965L477.486 457.316L486.494 456.679C486.494 456.679 494.935 456.431 496.31 456.138C497.465 455.827 498.59 455.414 499.672 454.903C500.155 455.482 502.148 458.321 498.94 459.034Z" fill="#DCE6F2"/>
<path opacity="0.5" d="M476.404 460.046C475.923 460.053 475.443 459.993 474.978 459.868L475.08 459.499C476.267 459.754 477.499 459.699 478.658 459.339C479.084 459.225 479.505 459.104 479.931 458.977C480.701 458.732 481.486 458.535 482.28 458.385C483.563 458.218 484.86 458.18 486.151 458.27H486.424C490.281 458.473 494.149 458.3 497.972 457.755C498.879 457.692 499.744 457.344 500.442 456.762L500.716 457.035C499.961 457.676 499.023 458.062 498.036 458.136C494.187 458.685 490.294 458.858 486.412 458.652H486.131C484.858 458.563 483.578 458.601 482.312 458.767C481.535 458.912 480.767 459.105 480.014 459.346C479.587 459.473 479.161 459.6 478.741 459.709C477.979 459.916 477.194 460.029 476.404 460.046V460.046Z" fill="#575988"/>
<path opacity="0.1" d="M529.388 335.902L527.121 338.034L521.494 330.829C522.087 330.496 522.663 330.132 523.219 329.741L529.388 335.902Z" fill="black"/>
<path d="M554.902 276.867L559.358 283.022V289.469C559.358 289.469 561.376 296.299 559.358 303.129L559.575 309.093C559.575 309.093 557.429 314.573 558.2 315.922C558.2 315.922 557.818 319.964 552.623 322.752C547.429 325.54 541.534 332.147 541.534 332.147C541.534 332.147 539.318 336.38 533.354 335.418L527.675 337.824L521.138 329.454L529.986 324.642C529.986 324.642 533.067 320.512 534.894 320.702L542.399 311.944C542.399 311.944 542.59 309.156 544.513 309.156C544.513 309.156 540.954 306.273 542.202 304.542C543.45 302.81 542.399 295.109 542.399 295.109L554.902 276.867Z" fill="#67647E"/>
<path opacity="0.1" d="M546.626 304.924C546.626 304.924 556.729 304.733 557.977 307.33C559.225 309.926 549.676 303.479 546.626 304.924Z" fill="black"/>
<path opacity="0.1" d="M526.848 337.824C526.849 337.993 526.834 338.161 526.803 338.327C526.687 339.102 526.307 339.813 525.727 340.339C525.147 340.866 524.403 341.176 523.62 341.217H523.442C522.54 341.217 521.676 340.859 521.038 340.221C520.401 339.584 520.043 338.719 520.043 337.818C520.043 337.443 520.108 337.07 520.234 336.717C518.629 335.444 518.54 333.102 518.585 331.943C519.426 331.803 520.236 331.517 520.978 331.097C521.397 332.299 521.959 333.447 522.653 334.515C522.911 334.453 523.176 334.421 523.442 334.419C523.889 334.419 524.332 334.507 524.745 334.678C525.159 334.849 525.534 335.1 525.85 335.417C526.167 335.733 526.417 336.108 526.589 336.521C526.76 336.934 526.848 337.377 526.848 337.824V337.824Z" fill="black"/>
<path d="M521.284 330.333C521.284 330.333 519.005 330.848 519.005 331.262C519.005 331.676 518.489 335.431 520.991 336.99C523.493 338.55 523.238 334.839 523.238 334.839C523.238 334.839 521.086 331.542 521.284 330.333Z" fill="#575988"/>
<path d="M523.824 341.223C525.701 341.223 527.223 339.702 527.223 337.824C527.223 335.947 525.701 334.425 523.824 334.425C521.946 334.425 520.424 335.947 520.424 337.824C520.424 339.702 521.946 341.223 523.824 341.223Z" fill="#E4AAB4"/>
<path d="M523.824 340.74C525.434 340.74 526.74 339.434 526.74 337.824C526.74 336.214 525.434 334.909 523.824 334.909C522.214 334.909 520.908 336.214 520.908 337.824C520.908 339.434 522.214 340.74 523.824 340.74Z" fill="#DCE6F2"/>
<path opacity="0.1" d="M510.583 339.142C510.583 339.142 517.77 345.1 527 341.319V344.209C527 344.209 520.845 348.441 515.268 345.876C509.692 343.311 510.583 339.142 510.583 339.142Z" fill="black"/>
<path opacity="0.1" d="M510.583 338.372C510.583 338.372 517.77 344.336 527 340.549V343.439C527 343.439 520.845 347.671 515.268 345.106C509.692 342.541 510.583 338.372 510.583 338.372Z" fill="black"/>
<path d="M510.583 338.372C510.583 338.372 517.77 344.336 527 340.549V343.439C527 343.439 520.845 347.671 515.268 345.106C509.692 342.541 510.583 338.372 510.583 338.372Z" fill="#444053"/>
<path opacity="0.05" d="M510.774 338.372C510.774 338.372 517.961 344.336 527.198 340.549V343.439C527.198 343.439 521.042 347.671 515.459 345.106C509.876 342.541 510.774 338.372 510.774 338.372Z" fill="black"/>
<path opacity="0.1" d="M488.003 445.502C488.003 445.502 497.628 447.271 499.035 447.653C500.442 448.035 498.653 448.71 498.653 448.71C498.653 448.71 489.868 447.138 488.003 445.502Z" fill="black"/>
<path opacity="0.1" d="M487.78 440.403C487.939 440.403 494.324 438.608 495.699 435.534Z" fill="black"/>
<path opacity="0.1" d="M497.093 403.594C497.093 403.594 499.678 406.993 501.346 406.898C503.014 406.802 498.609 403.467 497.093 403.594Z" fill="black"/>
<path opacity="0.1" d="M498.526 409.259C498.526 409.259 499.614 411.659 501.219 410.889Z" fill="black"/>
<path opacity="0.05" d="M504.612 356.43L511.436 374.423C511.436 374.423 512.397 362.846 510.366 359.383C509.789 358.393 508.941 357.588 507.921 357.065C506.901 356.542 505.753 356.321 504.612 356.43V356.43Z" fill="black"/>
<g opacity="0.1">
<path opacity="0.1" d="M521.38 213.853L521.322 213.592L520.227 213.299L520.348 213.834C520.691 213.859 521.036 213.865 521.38 213.853V213.853Z" fill="black"/>
<path opacity="0.1" d="M518.368 218.194L518.483 218.092C518.797 217.799 519.022 217.425 519.135 217.011C519.247 216.597 519.242 216.16 519.12 215.749C518.987 215.43 518.802 215.135 518.572 214.877C518.033 214.771 517.504 214.616 516.993 214.413C516.93 215.374 518.012 215.998 518.349 216.901C518.506 217.317 518.512 217.774 518.368 218.194V218.194Z" fill="black"/>
<path opacity="0.1" d="M536.568 247.772C535.382 247.024 534.475 245.905 533.99 244.59C533.449 243.317 533.112 241.942 532.558 240.669C531.953 239.27 531.089 237.998 530.011 236.92C529.828 236.708 529.593 236.546 529.33 236.449C529.083 236.416 528.831 236.434 528.591 236.5C528.35 236.567 528.125 236.681 527.93 236.837C527.282 237.276 526.559 237.593 525.797 237.773C525.416 237.859 525.019 237.845 524.645 237.734C524.27 237.623 523.93 237.417 523.658 237.136C523.06 236.423 523.143 235.373 523.315 234.463C523.69 232.477 524.314 230.51 524.32 228.492C524.327 226.475 523.55 224.285 521.774 223.286C520.221 222.401 518.292 222.649 516.567 222.153C515.682 221.909 514.856 221.487 514.141 220.912C514.096 220.875 514.053 220.834 514.014 220.791C513.869 220.846 513.729 220.912 513.594 220.988C513.314 221.134 513.015 221.402 513.091 221.707C513.149 221.852 513.248 221.976 513.377 222.064C514.089 222.64 514.913 223.063 515.797 223.305C517.522 223.776 519.451 223.553 521.004 224.438C522.761 225.437 523.55 227.62 523.55 229.644C523.55 231.669 522.914 233.629 522.544 235.615C522.372 236.531 522.29 237.575 522.888 238.288C523.16 238.569 523.5 238.775 523.874 238.886C524.249 238.998 524.646 239.011 525.027 238.925C525.789 238.748 526.512 238.433 527.16 237.995C527.354 237.838 527.578 237.722 527.819 237.654C528.06 237.586 528.312 237.568 528.56 237.601C528.823 237.699 529.057 237.861 529.241 238.072C530.316 239.152 531.18 240.423 531.788 241.821C532.348 243.094 532.679 244.462 533.226 245.748C533.703 247.059 534.598 248.177 535.773 248.93C536.988 249.605 538.688 249.567 539.592 248.523C539.842 248.24 540.037 247.911 540.165 247.556C539.652 247.938 539.038 248.163 538.399 248.201C537.76 248.239 537.124 248.09 536.568 247.772V247.772Z" fill="black"/>
<path opacity="0.1" d="M542.069 242.877C543.03 241.661 544.297 240.624 545.2 239.351C545.379 239.096 545.544 238.829 545.697 238.562C544.532 240.045 542.934 241.222 542.069 242.877Z" fill="black"/>
</g>
</g>
<defs>
<linearGradient id="paint0_linear" x1="494.986" y1="467.232" x2="494.986" y2="210.479" gradientUnits="userSpaceOnUse">
<stop stop-color="#808080" stop-opacity="0.25"/>
<stop offset="0.54" stop-color="#808080" stop-opacity="0.12"/>
<stop offset="1" stop-color="#808080" stop-opacity="0.1"/>
</linearGradient>
<clipPath id="clip0">
<rect width="654" height="499" fill="white"/>
</clipPath>
</defs>
</svg>
