<svg width="26" height="25" viewBox="0 0 26 25" fill="none" xmlns="http://www.w3.org/2000/svg">
<path d="M4.77344 7.03125H5.78906V8.00781C5.78906 8.4123 6.13011 8.74023 6.55078 8.74023C6.97145 8.74023 7.3125 8.4123 7.3125 8.00781V7.03125H8.32812C8.7488 7.03125 9.08984 6.70332 9.08984 6.29883C9.08984 5.89434 8.7488 5.56641 8.32812 5.56641H7.3125V4.58984C7.3125 4.18535 6.97145 3.85742 6.55078 3.85742C6.13011 3.85742 5.78906 4.18535 5.78906 4.58984V5.56641H4.77344C4.35277 5.56641 4.01172 5.89434 4.01172 6.29883C4.01172 6.70332 4.35277 7.03125 4.77344 7.03125Z" fill="white"/>
<path d="M16.6055 7.03125H19.6523C20.073 7.03125 20.4141 6.70332 20.4141 6.29883C20.4141 5.89434 20.073 5.56641 19.6523 5.56641H16.6055C16.1848 5.56641 15.8438 5.89434 15.8438 6.29883C15.8438 6.70332 16.1848 7.03125 16.6055 7.03125Z" fill="white"/>
<path d="M19.9062 17.9199H16.3516C15.9309 17.9199 15.5898 18.2479 15.5898 18.6523C15.5898 19.0568 15.9309 19.3848 16.3516 19.3848H19.9062C20.3269 19.3848 20.668 19.0568 20.668 18.6523C20.668 18.2479 20.3269 17.9199 19.9062 17.9199Z" fill="white"/>
<path d="M19.9062 15.4785H16.3516C15.9309 15.4785 15.5898 15.8064 15.5898 16.2109C15.5898 16.6154 15.9309 16.9434 16.3516 16.9434H19.9062C20.3269 16.9434 20.668 16.6154 20.668 16.2109C20.668 15.8064 20.3269 15.4785 19.9062 15.4785Z" fill="white"/>
<path d="M8.35885 15.6931C8.06143 15.4071 7.57911 15.4071 7.28163 15.6931L6.55074 16.3959L5.8198 15.693C5.52237 15.407 5.04005 15.407 4.74258 15.693C4.4451 15.9791 4.4451 16.4428 4.74258 16.7288L5.47352 17.4317L4.74258 18.1345C4.4451 18.4205 4.4451 18.8843 4.74258 19.1703C4.89132 19.3133 5.08626 19.3848 5.28121 19.3848C5.47616 19.3848 5.67111 19.3133 5.8198 19.1702L6.55074 18.4675L7.28169 19.1703C7.43037 19.3133 7.62532 19.3848 7.82027 19.3848C8.01522 19.3848 8.21017 19.3133 8.35885 19.1702C8.65633 18.8842 8.65633 18.4205 8.35885 18.1345L7.62796 17.4317L8.35891 16.7288C8.65638 16.4428 8.65638 15.9791 8.35885 15.6931Z" fill="white"/>
<path d="M24.6797 13.2407V2.19727C24.6797 0.985693 23.6546 0 22.3945 0H2.28516C1.02512 0 0 0.985693 0 2.19727V21.5332C0 22.7448 1.02512 23.7305 2.28516 23.7305H13.7702C15.019 24.532 16.5181 25 18.1289 25C22.4691 25 26 21.6048 26 17.4316C26 15.8828 25.5133 14.4414 24.6797 13.2407ZM23.1562 2.19727V11.6128C21.7917 10.5209 20.0387 9.86328 18.1289 9.86328C16.2191 9.86328 14.4661 10.5209 13.1016 11.6128V1.46484H22.3945C22.8145 1.46484 23.1562 1.79341 23.1562 2.19727ZM2.28516 1.46484H11.5781V11.1328H1.52344V2.19727C1.52344 1.79341 1.86514 1.46484 2.28516 1.46484ZM1.52344 21.5332V12.5977H11.5781V13.2407C10.7445 14.4414 10.2578 15.8828 10.2578 17.4316C10.2578 19.268 10.9418 20.9536 12.0773 22.2656H2.28516C1.86514 22.2656 1.52344 21.9371 1.52344 21.5332V21.5332ZM18.1289 23.5352C14.6288 23.5352 11.7812 20.7971 11.7812 17.4316C11.7812 14.0662 14.6288 11.3281 18.1289 11.3281C21.629 11.3281 24.4766 14.0662 24.4766 17.4316C24.4766 20.7971 21.629 23.5352 18.1289 23.5352Z" fill="white"/>
</svg>
