<svg width="200" height="136" viewBox="0 0 200 136" fill="none" xmlns="http://www.w3.org/2000/svg">
<g clip-path="url(#clip0)">
<path d="M110.694 63.1381H60.2312C59.4259 63.1372 58.6539 62.8169 58.0844 62.2475C57.515 61.678 57.1947 60.906 57.1938 60.1007V37.9811C57.1947 37.1758 57.515 36.4037 58.0844 35.8343C58.6539 35.2649 59.4259 34.9446 60.2312 34.9437H110.694C111.5 34.9446 112.272 35.2649 112.841 35.8343C113.411 36.4037 113.731 37.1758 113.732 37.9811V60.1007C113.731 60.906 113.411 61.678 112.841 62.2475C112.272 62.8169 111.5 63.1372 110.694 63.1381Z" fill="#E6E6E6"/>
<path d="M3.68216 8.88049C5.71575 8.88049 7.36431 7.23193 7.36431 5.19833C7.36431 3.16473 5.71575 1.51617 3.68216 1.51617C1.64856 1.51617 0 3.16473 0 5.19833C0 7.23193 1.64856 8.88049 3.68216 8.88049Z" fill="#28A761"/>
<path d="M4.76512 7.79751C3.99402 7.79751 3.24023 7.56885 2.59909 7.14045C1.95794 6.71205 1.45823 6.10315 1.16314 5.39074C0.868053 4.67834 0.790844 3.89443 0.941278 3.13814C1.09171 2.38186 1.46303 1.68717 2.00828 1.14192C2.55353 0.596668 3.24823 0.225349 4.00451 0.074915C4.76079 -0.0755193 5.5447 0.00168987 6.2571 0.296777C6.96951 0.591865 7.57841 1.09158 8.00681 1.73272C8.43521 2.37387 8.66387 3.12765 8.66387 3.89875C8.6627 4.93241 8.25157 5.92339 7.52066 6.6543C6.78976 7.3852 5.79877 7.79634 4.76512 7.79751ZM4.76512 0.433195C4.0797 0.433195 3.40967 0.636447 2.83976 1.01725C2.26985 1.39805 1.82566 1.9393 1.56336 2.57254C1.30106 3.20579 1.23243 3.9026 1.36615 4.57485C1.49987 5.2471 1.82993 5.8646 2.3146 6.34927C2.79926 6.83394 3.41677 7.164 4.08902 7.29772C4.76127 7.43144 5.45808 7.36281 6.09133 7.10051C6.72458 6.83821 7.26582 6.39402 7.64663 5.82412C8.02743 5.25421 8.23068 4.58418 8.23068 3.89875C8.22963 2.97995 7.86417 2.09908 7.21448 1.44939C6.56479 0.799699 5.68392 0.434241 4.76512 0.433195Z" fill="#3F3D56"/>
<path d="M48.5178 55.2323C50.5514 55.2323 52.2 53.5838 52.2 51.5502C52.2 49.5166 50.5514 47.868 48.5178 47.868C46.4842 47.868 44.8357 49.5166 44.8357 51.5502C44.8357 53.5838 46.4842 55.2323 48.5178 55.2323Z" fill="#E6E6E6"/>
<path d="M49.6008 54.1493C48.8297 54.1493 48.0759 53.9207 47.4348 53.4923C46.7936 53.0639 46.2939 52.455 45.9988 51.7425C45.7037 51.0301 45.6265 50.2462 45.7769 49.49C45.9274 48.7337 46.2987 48.039 46.8439 47.4937C47.3892 46.9485 48.0839 46.5772 48.8402 46.4267C49.5965 46.2763 50.3804 46.3535 51.0928 46.6486C51.8052 46.9437 52.4141 47.4434 52.8425 48.0845C53.2709 48.7257 53.4995 49.4795 53.4995 50.2506C53.4984 51.2842 53.0872 52.2752 52.3563 53.0061C51.6254 53.737 50.6344 54.1481 49.6008 54.1493ZM49.6008 46.785C48.9154 46.785 48.2453 46.9883 47.6754 47.3691C47.1055 47.7499 46.6613 48.2911 46.399 48.9244C46.1367 49.5576 46.0681 50.2544 46.2018 50.9267C46.3355 51.5989 46.6656 52.2164 47.1503 52.7011C47.6349 53.1857 48.2524 53.5158 48.9247 53.6495C49.5969 53.7832 50.2938 53.7146 50.927 53.4523C51.5603 53.19 52.1015 52.7458 52.4823 52.1759C52.8631 51.606 53.0664 50.936 53.0664 50.2506C53.0653 49.3318 52.6999 48.4509 52.0502 47.8012C51.4005 47.1515 50.5196 46.786 49.6008 46.785Z" fill="#3F3D56"/>
<path d="M77.1087 27.2913C79.1423 27.2913 80.7908 25.6428 80.7908 23.6092C80.7908 21.5756 79.1423 19.927 77.1087 19.927C75.0751 19.927 73.4265 21.5756 73.4265 23.6092C73.4265 25.6428 75.0751 27.2913 77.1087 27.2913Z" fill="#28A761"/>
<path d="M78.1916 26.2083C77.4205 26.2083 76.6667 25.9796 76.0256 25.5512C75.3845 25.1228 74.8847 24.5139 74.5897 23.8015C74.2946 23.0891 74.2174 22.3052 74.3678 21.5489C74.5182 20.7926 74.8895 20.0979 75.4348 19.5527C75.98 19.0074 76.6747 18.6361 77.431 18.4857C78.1873 18.3352 78.9712 18.4125 79.6836 18.7075C80.396 19.0026 81.0049 19.5023 81.4333 20.1435C81.8617 20.7846 82.0904 21.5384 82.0904 22.3095C82.0892 23.3432 81.6781 24.3342 80.9472 25.0651C80.2163 25.796 79.2253 26.2071 78.1916 26.2083ZM78.1916 18.844C77.5062 18.844 76.8362 19.0472 76.2663 19.428C75.6964 19.8088 75.2522 20.3501 74.9899 20.9833C74.7276 21.6166 74.6589 22.3134 74.7927 22.9856C74.9264 23.6579 75.2564 24.2754 75.7411 24.76C76.2258 25.2447 76.8433 25.5748 77.5155 25.7085C78.1878 25.8422 78.8846 25.7736 79.5178 25.5113C80.1511 25.249 80.6923 24.8048 81.0731 24.2349C81.4539 23.665 81.6572 22.9949 81.6572 22.3095C81.6561 21.3907 81.2907 20.5098 80.641 19.8602C79.9913 19.2105 79.1104 18.845 78.1916 18.844Z" fill="#3F3D56"/>
<path d="M61.7788 41.8347H11.3157C10.5104 41.8338 9.73835 41.5135 9.16891 40.9441C8.59947 40.3746 8.27915 39.6026 8.27823 38.7973V16.6778C8.27913 15.8725 8.59944 15.1004 9.16888 14.531C9.73832 13.9615 10.5104 13.6412 11.3157 13.6403H61.7788C62.5841 13.6412 63.3562 13.9615 63.9256 14.531C64.4951 15.1004 64.8154 15.8725 64.8163 16.6778V38.7973C64.8154 39.6026 64.495 40.3746 63.9256 40.9441C63.3561 41.5135 62.5841 41.8338 61.7788 41.8347Z" fill="#28A761"/>
<path d="M65.0703 39.5658H14.6072C13.7732 39.5649 12.9736 39.2332 12.3839 38.6434C11.7941 38.0537 11.4624 37.2541 11.4615 36.4201V14.3005C11.4624 13.4665 11.7941 12.6669 12.3839 12.0772C12.9736 11.4874 13.7732 11.1557 14.6072 11.1548H65.0703C65.9043 11.1557 66.7039 11.4874 67.2937 12.0772C67.8834 12.6669 68.2152 13.4665 68.2161 14.3005V36.4201C68.2152 37.2541 67.8834 38.0537 67.2937 38.6434C66.7039 39.2332 65.9043 39.5649 65.0703 39.5658ZM14.6072 11.588C13.8881 11.5888 13.1986 11.8748 12.6901 12.3834C12.1815 12.8919 11.8955 13.5814 11.8947 14.3005V36.4201C11.8955 37.1393 12.1815 37.8287 12.6901 38.3373C13.1986 38.8458 13.8881 39.1318 14.6072 39.1327H65.0703C65.7895 39.1318 66.479 38.8458 66.9875 38.3373C67.496 37.8287 67.7821 37.1393 67.7829 36.4201V14.3005C67.7821 13.5814 67.496 12.8919 66.9875 12.3834C66.479 11.8748 65.7895 11.5888 65.0703 11.588H14.6072Z" fill="#3F3D56"/>
<path d="M113.986 60.8693H63.5228C62.6887 60.8683 61.8892 60.5365 61.2994 59.9468C60.7097 59.357 60.3779 58.5574 60.377 57.7234V35.6039C60.3779 34.7699 60.7097 33.9703 61.2994 33.3806C61.8892 32.7909 62.6888 32.4591 63.5228 32.4582H113.986C114.82 32.4591 115.619 32.7909 116.209 33.3806C116.799 33.9703 117.131 34.7699 117.132 35.6039V57.7234C117.131 58.5574 116.799 59.357 116.209 59.9468C115.619 60.5365 114.82 60.8683 113.986 60.8693ZM63.5228 32.8914C62.8036 32.8922 62.1141 33.1782 61.6056 33.6868C61.0971 34.1953 60.811 34.8848 60.8102 35.6039V57.7234C60.811 58.4426 61.097 59.1321 61.6056 59.6406C62.1141 60.1492 62.8036 60.4352 63.5228 60.4361H113.986C114.705 60.4352 115.395 60.1492 115.903 59.6406C116.412 59.1321 116.698 58.4426 116.698 57.7234V35.6039C116.698 34.8848 116.412 34.1953 115.903 33.6868C115.395 33.1782 114.705 32.8922 113.986 32.8914H63.5228Z" fill="#3F3D56"/>
<path d="M145.49 91.6077C145.133 91.6071 144.79 91.4709 144.529 91.2266C144.269 90.9823 144.111 90.6482 144.087 90.2918L143.879 87.1018C143.854 86.7292 143.979 86.3621 144.225 86.0814C144.471 85.8007 144.819 85.6293 145.191 85.6048L170.184 83.9681C170.98 83.916 171.763 84.1821 172.363 84.7079C172.962 85.2336 173.328 85.976 173.38 86.7716C173.432 87.5672 173.166 88.351 172.641 88.9504C172.115 89.5499 171.373 89.9159 170.577 89.968L145.584 91.6046C145.553 91.6066 145.522 91.6077 145.49 91.6077Z" fill="#28A761"/>
<path d="M150.418 92.0189C150.054 92.0183 149.705 91.8769 149.442 91.6242C149.18 91.3716 149.026 91.0273 149.012 90.6635L148.834 85.8988C148.827 85.714 148.857 85.5297 148.921 85.3564C148.985 85.1831 149.083 85.0241 149.209 84.8886C149.335 84.7531 149.486 84.6436 149.654 84.5666C149.822 84.4895 150.004 84.4463 150.188 84.4394L170.74 83.6713C171.114 83.6573 171.477 83.7922 171.751 84.0462C172.024 84.3002 172.186 84.6525 172.2 85.0256L172.378 89.7904C172.385 89.9751 172.355 90.1594 172.291 90.3328C172.227 90.5061 172.129 90.6651 172.003 90.8006C171.877 90.9361 171.726 91.0455 171.558 91.1226C171.39 91.1997 171.208 91.2429 171.024 91.2497L150.472 92.0179C150.454 92.0186 150.436 92.0189 150.418 92.0189Z" fill="#2F2E41"/>
<path d="M174.502 135.941H171.305C170.932 135.94 170.574 135.792 170.31 135.528C170.046 135.264 169.898 134.906 169.897 134.533V107.888C169.898 107.515 170.046 107.157 170.31 106.893C170.574 106.629 170.932 106.481 171.305 106.48H174.502C174.875 106.481 175.233 106.629 175.497 106.893C175.761 107.157 175.91 107.515 175.91 107.888V134.533C175.91 134.906 175.761 135.264 175.497 135.528C175.233 135.792 174.875 135.94 174.502 135.941Z" fill="#2F2E41"/>
<path d="M168.179 135.941H164.982C164.609 135.94 164.251 135.792 163.987 135.528C163.723 135.264 163.575 134.906 163.574 134.533V107.888C163.575 107.515 163.723 107.157 163.987 106.893C164.251 106.629 164.609 106.481 164.982 106.48H168.179C168.552 106.481 168.91 106.629 169.174 106.893C169.438 107.157 169.587 107.515 169.587 107.888V134.533C169.587 134.906 169.438 135.264 169.174 135.528C168.91 135.792 168.552 135.94 168.179 135.941Z" fill="#2F2E41"/>
<path d="M169.647 78.674C175.748 78.674 180.693 73.7283 180.693 67.6275C180.693 61.5267 175.748 56.5811 169.647 56.5811C163.546 56.5811 158.6 61.5267 158.6 67.6275C158.6 73.7283 163.546 78.674 169.647 78.674Z" fill="#28A761"/>
<path d="M164.787 72.4929C164.413 72.5008 164.042 72.4284 163.699 72.2808C163.467 72.1707 163.261 72.0112 163.098 71.8134C162.934 71.6157 162.815 71.3846 162.75 71.1361C162.7 70.9603 162.692 70.7753 162.726 70.5957C162.759 70.4161 162.834 70.2468 162.944 70.1009C163.233 69.7307 163.731 69.5546 164.317 69.5996L162.866 65.5386L163.274 65.3928L164.979 70.1671L164.595 70.0798C164.149 69.979 163.571 70.0011 163.286 70.3672C163.217 70.4617 163.17 70.5708 163.15 70.6861C163.13 70.8014 163.137 70.9198 163.17 71.0321C163.22 71.2168 163.309 71.3886 163.43 71.536C163.552 71.6833 163.705 71.8026 163.877 71.8859C164.48 72.1581 165.185 72.0612 165.978 71.9175L166.056 72.3437C165.638 72.4312 165.214 72.4812 164.787 72.4929Z" fill="#2F2E41"/>
<path d="M160.865 66.3357L158.581 66.8154L158.671 67.2393L160.954 66.7596L160.865 66.3357Z" fill="#2F2E41"/>
<path d="M168.072 64.8215L165.788 65.3011L165.877 65.725L168.161 65.2454L168.072 64.8215Z" fill="#2F2E41"/>
<path d="M135.976 92.4481L148.428 99.2879C148.501 99.3358 148.582 99.3674 148.668 99.3803C148.754 99.3933 148.841 99.3873 148.924 99.3627C149.008 99.3382 149.084 99.2958 149.149 99.2384C149.214 99.181 149.266 99.1101 149.3 99.0307L152.351 92.6546C152.409 92.4728 152.399 92.2764 152.324 92.1009C152.249 91.9255 152.114 91.7828 151.943 91.6988L141.604 86.37C141.477 86.2934 141.326 86.2665 141.18 86.2944C141.034 86.3223 140.904 86.403 140.813 86.5212L135.649 91.3863C135.55 91.5637 135.525 91.7734 135.58 91.9692C135.635 92.165 135.765 92.3309 135.943 92.4304C135.954 92.4366 135.965 92.4425 135.976 92.4481Z" fill="#3F3D56"/>
<path d="M136.807 91.5062L148.481 98.1787L151.587 92.5796L141.573 87.1337L136.807 91.5062Z" fill="white"/>
<path d="M146.824 89.6157C146.886 89.5639 146.888 89.4628 146.827 89.3899C146.766 89.317 146.666 89.3 146.604 89.3518C146.542 89.4037 146.541 89.5048 146.602 89.5776C146.663 89.6505 146.762 89.6675 146.824 89.6157Z" fill="#F2F2F2"/>
<path d="M142.453 95.2998C142.495 95.2653 142.496 95.1979 142.455 95.1493C142.414 95.1007 142.348 95.0893 142.307 95.1239C142.265 95.1584 142.264 95.2258 142.305 95.2744C142.346 95.323 142.412 95.3344 142.453 95.2998Z" fill="#F2F2F2"/>
<path d="M178.871 115.037H160.243C159.755 115.037 159.287 114.842 158.942 114.497C158.597 114.152 158.403 113.684 158.402 113.196L162.302 83.2917C162.305 82.8058 162.5 82.3409 162.845 81.9985C163.19 81.6562 163.656 81.4642 164.142 81.4645H170.752C173.393 81.4675 175.924 82.5177 177.791 84.3848C179.658 86.2519 180.709 88.7833 180.712 91.4237V113.196C180.711 113.684 180.517 114.152 180.172 114.497C179.827 114.842 179.359 115.037 178.871 115.037Z" fill="#2F2E41"/>
<path d="M166.148 81.3562L161.11 92.4027L161.976 83.1236C161.974 82.8938 162.017 82.6658 162.102 82.4525C162.188 82.2393 162.315 82.0451 162.476 81.881C162.637 81.7168 162.829 81.586 163.04 81.496C163.252 81.4059 163.479 81.3584 163.709 81.3562H166.148Z" fill="#CCCCCC"/>
<path d="M149.782 102.551C149.51 102.551 149.244 102.473 149.016 102.325C148.788 102.178 148.607 101.967 148.495 101.72L147.187 98.8027C147.111 98.634 147.069 98.4521 147.064 98.2673C147.059 98.0825 147.09 97.8984 147.156 97.7256C147.221 97.5528 147.321 97.3947 147.447 97.2602C147.574 97.1257 147.726 97.0176 147.895 96.942L170.747 86.6905C171.475 86.3641 172.302 86.3401 173.047 86.6238C173.792 86.9074 174.394 87.4754 174.721 88.2029C175.047 88.9304 175.071 89.7577 174.787 90.5028C174.504 91.248 173.936 91.8499 173.208 92.1763L150.356 102.428C150.176 102.509 149.98 102.551 149.782 102.551Z" fill="#28A761"/>
<path d="M156.448 101.045C156.176 101.045 155.91 100.967 155.681 100.819C155.453 100.672 155.272 100.462 155.161 100.214L152.926 95.2315C152.773 94.8907 152.762 94.5035 152.895 94.1546C153.028 93.8058 153.294 93.5239 153.634 93.3707L172.399 84.9528C172.568 84.8772 172.75 84.8354 172.934 84.8301C173.119 84.8247 173.303 84.8558 173.476 84.9216C173.649 84.9873 173.807 85.0865 173.941 85.2134C174.076 85.3403 174.184 85.4924 174.26 85.6611L176.495 90.6432C176.57 90.8119 176.612 90.9938 176.618 91.1786C176.623 91.3634 176.592 91.5475 176.526 91.7203C176.46 91.893 176.361 92.0512 176.234 92.1857C176.107 92.3201 175.955 92.4283 175.786 92.5039L157.022 100.922C156.841 101.003 156.645 101.045 156.448 101.045Z" fill="#2F2E41"/>
<path d="M167.196 60.7016C165.397 60.039 163.919 61.7845 162.289 62.1842C160.73 62.5665 159.05 61.667 158.217 60.3562C157.246 58.8268 157.486 56.8412 158.37 55.3314C159.338 53.6778 161.062 52.6632 162.889 52.22C164.983 51.7121 167.165 51.9619 169.232 52.4778C171.214 52.942 173.136 53.634 174.959 54.5399C176.608 55.393 178.17 56.5601 179.133 58.1765C180.009 59.6455 180.442 61.4739 180.009 63.157C179.77 64.0258 179.312 64.8185 178.678 65.4586C178.025 66.1493 177.278 66.748 176.669 67.4806C175.749 68.5883 175.131 70.4037 176.038 71.714C176.235 72.0008 176.499 72.2348 176.807 72.3955C177.178 72.5885 177.507 72.0279 177.135 71.8345C176.483 71.4947 176.246 70.8052 176.264 70.1021C176.299 69.3042 176.604 68.5419 177.129 67.9401C177.766 67.1743 178.554 66.5543 179.227 65.8223C179.878 65.14 180.354 64.3106 180.615 63.4046C181.094 61.6523 180.72 59.7437 179.873 58.1649C178.957 56.4565 177.422 55.1665 175.752 54.229C173.933 53.2087 171.913 52.5249 169.906 51.9819C167.754 51.3992 165.493 51.0711 163.278 51.4744C161.357 51.8239 159.481 52.7509 158.273 54.3195C157.146 55.7836 156.607 57.7793 157.152 59.5809C157.411 60.3967 157.883 61.1287 158.518 61.7018C159.154 62.2748 159.931 62.6681 160.769 62.8412C161.621 62.998 162.501 62.8832 163.284 62.5131C164.128 62.1349 164.895 61.5469 165.793 61.2954C166.195 61.1723 166.627 61.1838 167.023 61.3282C167.416 61.4729 167.585 60.8451 167.196 60.7016V60.7016Z" fill="#2F2E41"/>
<path d="M199.742 135.925H130.367C130.299 135.924 130.234 135.897 130.185 135.849C130.137 135.8 130.11 135.735 130.11 135.667C130.11 135.598 130.137 135.533 130.185 135.485C130.234 135.436 130.299 135.409 130.367 135.409H199.742C199.811 135.409 199.876 135.436 199.924 135.484C199.973 135.533 200 135.598 200 135.667C200 135.735 199.973 135.801 199.924 135.849C199.876 135.897 199.811 135.925 199.742 135.925Z" fill="#3F3D56"/>
</g>
<defs>
<clipPath id="clip0">
<rect width="200" height="135.941" fill="white"/>
</clipPath>
</defs>
</svg>
